<svg width="15" height="16" viewBox="0 0 15 16" fill="none" xmlns="http://www.w3.org/2000/svg">
<g clip-path="url(#clip0_194_3736)">
<path d="M14.3719 14.1597C14.3903 14.3201 14.3738 14.4824 14.3234 14.636C14.273 14.7897 14.19 14.9311 14.0797 15.0511C13.9691 15.171 13.8338 15.2665 13.6827 15.3315C13.5316 15.3965 13.3681 15.4295 13.203 15.4283H1.79527C1.63019 15.4295 1.46674 15.3965 1.31564 15.3315C1.16454 15.2665 1.02924 15.171 0.918642 15.0511C0.808344 14.9311 0.725278 14.7897 0.674915 14.636C0.624551 14.4824 0.608029 14.3201 0.626436 14.1597L1.65501 5.14258H13.3433L14.3719 14.1597Z" stroke="#31333A" stroke-linecap="round" stroke-linejoin="round"/>
<path d="M4.57812 5.14369V3.42941C4.57812 2.67165 4.88599 1.94492 5.43398 1.4091C5.98198 0.873287 6.72522 0.572266 7.5002 0.572266C8.27522 0.572266 9.0184 0.873287 9.56645 1.4091C10.1144 1.94492 10.4223 2.67165 10.4223 3.42941V5.14369" stroke="#31333A" stroke-linecap="round" stroke-linejoin="round"/>
</g>
<defs>
<clipPath id="clip0_194_3736">
<rect width="15" height="16" fill="white"/>
</clipPath>
</defs>
</svg>
