<svg width="21" height="20" viewBox="0 0 21 20" fill="none" xmlns="http://www.w3.org/2000/svg">
<mask id="mask0_175_314" style="mask-type:luminance" maskUnits="userSpaceOnUse" x="0" y="0" width="21" height="20">
<path d="M20.5819 0H0.421875V20H20.5819V0Z" fill="white"/>
</mask>
<g mask="url(#mask0_175_314)">
<path d="M19.4326 5.00707C19.2586 6.83239 18.7806 8.39004 18.3283 9.47079C17.9765 10.3112 17.2374 10.9035 16.3371 11.0784C15.4148 11.2575 14.0169 11.4372 12.121 11.4372C10.7868 11.4372 9.65707 11.3482 8.75382 11.2331C7.16379 11.0304 6.04255 9.7402 5.78681 8.17021L5.03906 3.58008H18.0609C18.8562 3.58008 19.5074 4.22159 19.4326 5.00707Z" stroke="#31333A" stroke-linecap="round" stroke-linejoin="round"/>
<path d="M17.34 15.0092H9.35063C7.93795 15.0092 6.73386 13.9927 6.50774 12.6094L5.13228 4.19472C4.90615 2.81136 3.70203 1.79492 2.28942 1.79492H1.5" stroke="#31333A" stroke-linecap="round" stroke-linejoin="round"/>
<path d="M7.76781 18.2072C8.65788 18.2072 9.37936 17.4915 9.37936 16.6085C9.37936 15.7255 8.65788 15.0098 7.76781 15.0098C6.87776 15.0098 6.15625 15.7255 6.15625 16.6085C6.15625 17.4915 6.87776 18.2072 7.76781 18.2072Z" stroke="#31333A" stroke-linecap="round" stroke-linejoin="round"/>
<path d="M17.3381 18.2072C18.2282 18.2072 18.9496 17.4915 18.9496 16.6085C18.9496 15.7255 18.2282 15.0098 17.3381 15.0098C16.448 15.0098 15.7266 15.7255 15.7266 16.6085C15.7266 17.4915 16.448 18.2072 17.3381 18.2072Z" stroke="#31333A" stroke-linecap="round" stroke-linejoin="round"/>
</g>
</svg>
