<svg width="20" height="12" viewBox="0 0 20 12" fill="none" xmlns="http://www.w3.org/2000/svg">
<g clip-path="url(#clip0_175_1250)">
<path d="M19.3769 10.7199L19.3769 10.72C19.467 10.8132 19.5197 10.9424 19.5197 11.0795C19.5197 11.2167 19.467 11.3459 19.3769 11.4391L19.3769 11.4392C19.2873 11.5321 19.1685 11.5818 19.0473 11.5818H14.1131C13.9919 11.5818 13.8731 11.5321 13.7835 11.4392L13.7834 11.4391C13.6934 11.3459 13.6407 11.2167 13.6407 11.0795C13.6407 10.9424 13.6934 10.8132 13.7834 10.72L13.7835 10.7199C13.8731 10.627 13.9919 10.5773 14.1131 10.5773H19.0473C19.1685 10.5773 19.2873 10.627 19.3769 10.7199ZM19.3769 5.60627L19.3769 5.60631C19.467 5.69959 19.5197 5.82873 19.5197 5.96591C19.5197 6.10309 19.467 6.23223 19.3769 6.3255L19.3769 6.32555C19.2873 6.41841 19.1685 6.46818 19.0473 6.46818H7.53413C7.41295 6.46818 7.29411 6.41841 7.20451 6.32555L7.20447 6.3255C7.11445 6.23223 7.06176 6.10309 7.06176 5.96591C7.06176 5.82873 7.11445 5.69959 7.20447 5.60631L7.20451 5.60627C7.29411 5.5134 7.41295 5.46364 7.53413 5.46364H19.0473C19.1685 5.46364 19.2873 5.5134 19.3769 5.60627ZM0.625545 0.492655L0.625545 0.492654C0.715173 0.399767 0.834017 0.35 0.955181 0.35H19.0473C19.1685 0.35 19.2873 0.399772 19.3769 0.492643L19.3769 0.492665C19.467 0.585965 19.5197 0.715098 19.5197 0.852273C19.5197 0.989448 19.467 1.11858 19.3769 1.21188L19.3769 1.2119C19.2873 1.30477 19.1685 1.35455 19.0473 1.35455H0.955181C0.834017 1.35455 0.715173 1.30478 0.625545 1.21189C0.535507 1.11858 0.482812 0.989437 0.482812 0.852273C0.482812 0.715108 0.535507 0.585966 0.625545 0.492655Z" fill="black" stroke="#31333A" stroke-width="0.7"/>
</g>
<defs>
<clipPath id="clip0_175_1250">
<rect width="20" height="12" fill="white"/>
</clipPath>
</defs>
</svg>
