<svg width="17" height="20" viewBox="0 0 17 20" fill="none" xmlns="http://www.w3.org/2000/svg">
<path d="M7.7433 6.45731C9.17188 6.45731 10.3147 5.31445 10.3147 3.88588C10.3147 2.45731 9.17188 1.31445 7.7433 1.31445C6.31473 1.31445 5.17188 2.45731 5.17188 3.88588C5.17188 5.31445 6.31473 6.45731 7.7433 6.45731ZM7.7433 2.14302C8.68616 2.14302 9.45759 2.91445 9.45759 3.85731C9.45759 4.80017 8.68616 5.5716 7.7433 5.5716C6.80045 5.5716 6.02902 4.80017 6.02902 3.85731C6.02902 2.91445 6.77188 2.14302 7.7433 2.14302Z" fill="black"/>
<mask id="path-2-inside-1_175_399" fill="white">
<path d="M14.9467 13.115C14.0038 9.14357 10.0324 6.65786 6.06094 7.57215C4.14665 8.02929 2.48951 9.20072 1.46094 10.8864L2.20379 11.3436C4.11808 8.28643 8.14665 7.34357 11.2038 9.22929C12.6895 10.1436 13.7181 11.6007 14.1181 13.2864C14.5181 14.9721 14.2324 16.7436 13.3181 18.2293L14.0609 18.6864C15.0609 17.0293 15.3752 15.0293 14.9467 13.115Z"/>
</mask>
<path d="M14.9467 13.115C14.0038 9.14357 10.0324 6.65786 6.06094 7.57215C4.14665 8.02929 2.48951 9.20072 1.46094 10.8864L2.20379 11.3436C4.11808 8.28643 8.14665 7.34357 11.2038 9.22929C12.6895 10.1436 13.7181 11.6007 14.1181 13.2864C14.5181 14.9721 14.2324 16.7436 13.3181 18.2293L14.0609 18.6864C15.0609 17.0293 15.3752 15.0293 14.9467 13.115Z" fill="black"/>
<path d="M14.9467 13.115L15.9226 12.8965L15.9196 12.884L14.9467 13.115ZM6.06094 7.57215L5.83658 6.5976L5.82866 6.5995L6.06094 7.57215ZM1.46094 10.8864L0.607298 10.3656L0.0884051 11.216L0.936839 11.7381L1.46094 10.8864ZM2.20379 11.3436L1.6797 12.1952L2.52475 12.7153L3.05135 11.8743L2.20379 11.3436ZM11.2038 9.22929L10.6788 10.0804L10.6797 10.0809L11.2038 9.22929ZM13.3181 18.2293L12.4664 17.7052L11.9423 18.5568L12.794 19.0809L13.3181 18.2293ZM14.0609 18.6864L13.5368 19.5381L14.3959 20.0668L14.9171 19.2031L14.0609 18.6864ZM15.9196 12.884C14.8509 8.38238 10.3482 5.559 5.83659 6.59764L6.28528 8.54665C9.71655 7.75672 13.1567 9.90477 13.9737 13.346L15.9196 12.884ZM5.82866 6.5995C3.66485 7.11623 1.77957 8.44434 0.607298 10.3656L2.31458 11.4073C3.19944 9.95709 4.62846 8.94235 6.29321 8.5448L5.82866 6.5995ZM0.936839 11.7381L1.6797 12.1952L2.72789 10.4919L1.98504 10.0348L0.936839 11.7381ZM3.05135 11.8743C4.67507 9.28117 8.09132 8.48438 10.6788 10.0804L11.7288 8.37818C8.20198 6.20277 3.56109 7.29169 1.35624 10.8129L3.05135 11.8743ZM10.6797 10.0809C11.9328 10.8521 12.8046 12.0824 13.1451 13.5173L15.0911 13.0556C14.6316 11.1191 13.4462 9.43505 11.7279 8.37763L10.6797 10.0809ZM13.1451 13.5173C13.4836 14.9439 13.2426 16.4439 12.4664 17.7052L14.1697 18.7534C15.2221 17.0432 15.5526 15.0004 15.0911 13.0556L13.1451 13.5173ZM12.794 19.0809L13.5368 19.5381L14.585 17.8348L13.8422 17.3776L12.794 19.0809ZM14.9171 19.2031C16.0533 17.3204 16.406 15.0563 15.9225 12.8965L13.9708 13.3335C14.3444 15.0023 14.0686 16.7382 13.2047 18.1698L14.9171 19.2031Z" fill="#2A2C2E" mask="url(#path-2-inside-1_175_399)"/>
</svg>
