
<!-- <svg width="22" height="22" viewBox="0 0 22 22" fill="none" xmlns="http://www.w3.org/2000/svg">
<path d="M11 7V5.986M11 6.25C11 3.35 13.35 1 16.25 1C19.15 1 21.5 3.382 21.5 6.282C21.5 7.842 20.812 9.337 19.62 10.344L13.963 15.12C13.0347 15.9038 12.2886 16.8808 11.7769 17.9828C11.2651 19.0847 11 20.285 11 21.5C11 20.285 10.7349 19.0847 10.2231 17.9828C9.71138 16.8808 8.96531 15.9038 8.037 15.12L2.38 10.344C1.79071 9.84386 1.31731 9.22147 0.992672 8.52003C0.668029 7.8186 0.499916 7.05492 0.5 6.282C0.5 3.382 2.85 1 5.75 1C8.65 1 11 3.35 11 6.25Z" stroke="#262626"/>
</svg> 

 -->



<svg width="20" height="17" viewBox="0 0 20 17" fill="none" xmlns="http://www.w3.org/2000/svg">
<path d="M2.3314 8.5474L10 16.5L17.6686 8.5474C18.5211 7.6633 19 6.46429 19 5.21405C19 2.61055 16.9648 0.5 14.4543 0.5C13.2487 0.5 12.0925 0.99666 11.24 1.88071L10 3.16667L8.76 1.88071C7.90749 0.99666 6.75128 0.5 5.54569 0.5C3.03517 0.5 1 2.61055 1 5.21405C1 6.46429 1.47892 7.6633 2.3314 8.5474Z" stroke="#262626" stroke-linecap="round" stroke-linejoin="round"/>
</svg> 
