<svg width="34" height="31" viewBox="0 0 34 31" fill="none" xmlns="http://www.w3.org/2000/svg">
<path d="M17 3.00879C15.022 1.23512 12.4297 0.303713 9.77521 0.412921C7.12069 0.522129 4.61368 1.66332 2.78806 3.59348C0.962441 5.52364 -0.0375374 8.09024 0.00107819 10.7467C0.0396938 13.4032 1.11385 15.9397 2.9948 17.8159L14.5976 29.417C15.2348 30.054 16.0989 30.4119 17 30.4119C17.901 30.4119 18.7652 30.054 19.4024 29.417L31.0052 17.8159C32.8861 15.9397 33.9603 13.4032 33.9989 10.7467C34.0375 8.09024 33.0376 5.52364 31.2119 3.59348C29.3863 1.66332 26.8793 0.522129 24.2248 0.412921C21.5703 0.303713 18.978 1.23512 17 3.00879Z" fill="black"/>
</svg>
