<svg width="34" height="31" viewBox="0 0 34 31" fill="none" xmlns="http://www.w3.org/2000/svg">
<path d="M17 2.6045C15.022 0.830824 12.4297 -0.100583 9.77521 0.00862454C7.12069 0.117832 4.61368 1.25903 2.78806 3.18918C0.962441 5.11934 -0.0375374 7.68594 0.00107819 10.3424C0.0396938 12.9989 1.11385 15.5354 2.9948 17.4116L14.5976 29.0127C15.2348 29.6497 16.0989 30.0076 17 30.0076C17.9011 30.0076 18.7652 29.6497 19.4024 29.0127L31.0052 17.4116C32.8862 15.5354 33.9603 12.9989 33.9989 10.3424C34.0375 7.68594 33.0376 5.11934 31.2119 3.18918C29.3863 1.25903 26.8793 0.117832 24.2248 0.00862454C21.5703 -0.100583 18.978 0.830824 17 2.6045ZM15.0087 5.39772L15.7988 6.18608C16.1174 6.5046 16.5495 6.68353 17 6.68353C17.4505 6.68353 17.8826 6.5046 18.2012 6.18608L18.9913 5.39772C19.6182 4.74862 20.3681 4.23087 21.1973 3.87469C22.0264 3.51851 22.9182 3.33103 23.8206 3.32319C24.723 3.31535 25.6179 3.4873 26.4532 3.82902C27.2884 4.17074 28.0472 4.67537 28.6853 5.31348C29.3234 5.95159 29.828 6.7104 30.1698 7.54562C30.5115 8.38085 30.6834 9.27576 30.6756 10.1782C30.6677 11.0805 30.4803 11.9723 30.1241 12.8015C29.7679 13.6307 29.2502 14.3806 28.6011 15.0075L17 26.6103L5.39895 15.0075C4.16097 13.7257 3.47596 12.009 3.49144 10.2271C3.50692 8.44514 4.22167 6.74057 5.48173 5.48051C6.7418 4.22044 8.44636 3.5057 10.2283 3.49021C12.0102 3.47473 13.727 4.15974 15.0087 5.39772Z" fill="#0D0D0D"/>
</svg>
