<svg width="18" height="18" viewBox="0 0 18 18" fill="none" xmlns="http://www.w3.org/2000/svg">
<path d="M4.42857 17L5.11763 16.4307C6.24434 15.4998 7.62217 15.0343 9 15.0343V1H8.81821L8.34644 2.70872C7.61684 5.35142 5.21258 7.18182 2.471 7.18182H1V7.47619L2.26199 8.3472C4.45335 9.85958 5.40943 12.6194 4.62332 15.1632L4.05573 17H4.42857Z" fill="#4A4A4A"/>
<path d="M9 1H8.81821L8.34644 2.70872C7.61684 5.35142 5.21258 7.18182 2.471 7.18182H1V7.47619L2.26199 8.3472C4.45335 9.85958 5.40943 12.6194 4.62332 15.1632L4.05573 17H4.42857L5.11763 16.4307C6.24434 15.4998 7.62217 15.0343 9 15.0343M9 1H9.18179L9.65356 2.70872C10.3832 5.35142 12.7874 7.18182 15.529 7.18182H17V7.47619L15.738 8.3472C13.5467 9.85958 12.5906 12.6194 13.3767 15.1632L13.9443 17H13.5714L12.8824 16.4307C11.7557 15.4998 10.3778 15.0343 9 15.0343M9 1V15.0343" stroke="#4A4A4A"/>
</svg>
