<svg width="17" height="16" viewBox="0 0 17 16" fill="none" xmlns="http://www.w3.org/2000/svg">
<g clip-path="url(#clip0_175_1079)">
<path d="M7.86417 1.32031H8.16958L8.56587 2.72199C9.17873 4.88984 11.1983 6.39134 13.5012 6.39134H14.7369V6.63281L13.6768 7.34731C11.8361 8.58794 11.0329 10.8518 11.6933 12.9386L12.1701 14.4453H11.8569L11.2781 13.9783C9.38519 12.451 6.64855 12.451 4.75568 13.9783L4.17687 14.4453H3.86368L4.34047 12.9386C5.0008 10.8518 4.19769 8.58794 2.35695 7.34731L1.29688 6.63281V6.39134H2.53252C4.83544 6.39134 6.85502 4.88984 7.46788 2.72199L7.86417 1.32031Z" fill="#31333A" stroke="#31333A"/>
</g>
<defs>
<clipPath id="clip0_175_1079">
<rect width="16" height="15" fill="white" transform="translate(0.015625 0.382812)"/>
</clipPath>
</defs>
</svg>
