<svg width="16" height="16" viewBox="0 0 16 16" fill="none" xmlns="http://www.w3.org/2000/svg">
<g clip-path="url(#clip0_175_362)">
<path d="M8.21934 1.875H8.50566L8.87718 3.27668C9.45174 5.44453 11.3451 6.94602 13.5041 6.94602H14.6625V7.1875L13.6687 7.902C11.943 9.14262 11.1901 11.4065 11.8091 13.4932L12.2561 15H11.9625L11.4199 14.533C9.6453 13.0057 7.0797 13.0057 5.30513 14.533L4.7625 15H4.46888L4.91587 13.4932C5.53493 11.4065 4.78201 9.14262 3.05632 7.902L2.0625 7.1875V6.94602H3.22091C5.37991 6.94602 7.27326 5.44453 7.84782 3.27668L8.21934 1.875Z" stroke="#31333A"/>
</g>
<defs>
<clipPath id="clip0_175_362">
<rect width="15" height="15" fill="white" transform="translate(0.859375 0.9375)"/>
</clipPath>
</defs>
</svg>
