<?xml version="1.0" ?><svg style="enable-background:new 0 0 48 48;" version="1.1" viewBox="0 0 48 48" xml:space="preserve" xmlns="http://www.w3.org/2000/svg" xmlns:xlink="http://www.w3.org/1999/xlink"><style type="text/css">
	.st0{display:none;}
	.st1{fill:none;stroke:#303030;stroke-width:0.7;stroke-linecap:round;stroke-linejoin:round;stroke-miterlimit:10;}
	.st2{fill:#303030;}
</style><g class="st0" id="Padding__x26__Artboard"/><g id="Icons"><g><circle class="st1" cx="24" cy="24" r="12.244"/><g><path class="st1" d="M20.79997,28.7134h0.64869c0.19798,0.12818,0.38947,0.26632,0.59061,0.38961     c0.08706,0.05337,0.1867,0.12792,0.2855,0.15599l6.17811,0.00492c0.48661,0,0.94153-0.29707,0.94153-0.78368     c0-0.4919-0.04521-0.96604-0.53182-0.96604h0.05691c0.4919,0,0.85057-0.44298,0.85057-0.93488     c0-0.48661,0.0542-0.87575-0.4377-0.87575h0.17074c0.48661,0,0.74575-0.425,0.74575-0.9169     c0-0.48661,0.06355-0.8775-0.42306-0.8775h0.17007c0.48661,0,0.55362-0.42853,0.55362-0.91514     c0-0.4919-0.26357-0.85013-0.75018-0.85013l-4.60342,0.00751c0.10703-0.14717,0.65108-2.1683,0.61094-2.5563     s-0.48524-1.9846-0.48524-1.9846c-0.71654-0.65653-1.33023-0.59953-1.84635,0.1338l0,2.1407c0,0-1.84635,3.09063-1.87311,3.15084     s-0.89224,0.59864-0.89224,0.59864"/><path class="st1" d="M19.42525,29.79453h-0.6925c-0.7371,0-1.33464-0.59754-1.33464-1.33464v-4.17696     c0-0.7371,0.59754-1.33464,1.33464-1.33464h0.6925c0.7371,0,1.33464,0.59754,1.33464,1.33464v4.17696     C20.75989,29.19699,20.16235,29.79453,19.42525,29.79453z"/></g></g></g></svg>