<svg width="13" height="11" viewBox="0 0 13 11" fill="none" xmlns="http://www.w3.org/2000/svg">
<path d="M0.667969 4.57482V10.9748ZM9.73463 10.7082V10.6226C9.73463 8.61114 10.4451 6.66442 11.7407 5.12591L11.868 4.97481V4.84149H7.06797V2.97482C7.06797 1.94389 6.23224 1.10815 5.2013 1.10815H4.93464V2.44149C4.93464 3.76697 3.86012 4.84149 2.53464 4.84149H2.26797V10.7082H9.73463Z" fill="#2A2C2E"/>
<path d="M0.667969 4.57482V10.9748M9.73463 10.7082V10.6226C9.73463 8.61114 10.4451 6.66442 11.7407 5.12591L11.868 4.97481V4.84149H7.06797V2.97482C7.06797 1.94389 6.23224 1.10815 5.2013 1.10815H4.93464V2.44149C4.93464 3.76697 3.86012 4.84149 2.53464 4.84149H2.26797V10.7082H9.73463Z" stroke="#4A4A4A" stroke-width="0.533333"/>
</svg>
