<svg width="14" height="16" viewBox="0 0 14 16" fill="none" xmlns="http://www.w3.org/2000/svg">
<path d="M2.52643 2.16372C2.60698 1.71102 2.99927 1.40062 3.45239 1.40305L10.7335 1.44208L10.7402 0.192096L3.45909 0.153065C2.39661 0.147369 1.48627 0.908126 1.29324 1.93836L0.263102 7.55792C0.150294 8.19795 0.318649 8.85511 0.722297 9.34166C1.14149 9.84391 1.74935 10.1284 2.38996 10.1319L4.8743 10.1452C4.68371 10.7223 4.42919 11.5647 4.22012 12.673L4.12285 13.3287C3.9767 14.3592 4.69041 15.3005 5.70527 15.4466C6.20493 15.5118 6.68997 15.3894 7.0978 15.0947C7.50564 14.8 7.75806 14.3482 7.83878 13.8642L7.93588 13.2398C7.95193 13.1617 7.96797 13.0837 7.96839 13.0056C7.98443 12.9275 8.00048 12.8495 8.01652 12.7714C8.51312 10.4928 10.3355 8.6588 12.6824 8.07762L13.5116 7.87894L13.5527 0.207172L12.3027 0.200472L12.2668 6.9035C9.52851 7.62321 7.37619 9.79921 6.78359 12.4992C6.76746 12.5929 6.75133 12.6865 6.71958 12.7801C6.70345 12.8738 6.68732 12.9674 6.6712 13.0611L6.5741 13.6856C6.55755 13.8574 6.46305 13.9975 6.32192 14.0905C6.1808 14.1835 6.0243 14.2295 5.85251 14.213C5.50902 14.1643 5.27632 13.8505 5.32504 13.507L5.40643 12.8981C5.74426 11.0874 6.20299 10.0429 6.28221 9.84022L6.32975 9.71547L6.33411 8.90298L2.34979 8.88162C2.06854 8.88011 1.80359 8.75369 1.63281 8.54965C1.46211 8.32998 1.38549 8.04832 1.43379 7.78295L2.52643 2.16372Z" fill="black"/>
</svg>
