<svg width="24" height="24" viewBox="0 0 24 24" fill="none" xmlns="http://www.w3.org/2000/svg">
<path d="M12.0011 11.9983C13.4788 11.9983 14.8959 11.4113 15.9407 10.3665C16.9856 9.32165 17.5725 7.90453 17.5725 6.4269C17.5725 4.94926 16.9856 3.53215 15.9407 2.4873C14.8959 1.44246 13.4788 0.855469 12.0011 0.855469C10.5235 0.855469 9.10637 1.44246 8.06152 2.4873C7.01668 3.53215 6.42969 4.94926 6.42969 6.4269C6.42969 7.90453 7.01668 9.32165 8.06152 10.3665C9.10637 11.4113 10.5235 11.9983 12.0011 11.9983Z" stroke="#282828" stroke-linecap="round" stroke-linejoin="round"/>
<path d="M22.5948 23.1423C21.8751 20.8981 20.4613 18.9404 18.5573 17.5514C16.6533 16.1625 14.3573 15.4141 12.0005 15.4141C9.64373 15.4141 7.3478 16.1625 5.44376 17.5514C3.53972 18.9404 2.12595 20.8981 1.40625 23.1423H22.5948Z" stroke="#282828" stroke-linecap="round" stroke-linejoin="round"/>
</svg>
