<svg width="9" height="16" viewBox="0 0 9 16" fill="none" xmlns="http://www.w3.org/2000/svg">
<path fill-rule="evenodd" clip-rule="evenodd" d="M7.83361 0.516277C7.89274 0.544605 7.94571 0.58431 7.98948 0.63314C8.03324 0.68196 8.06695 0.738954 8.08865 0.800818C8.11036 0.862682 8.11965 0.928242 8.11599 0.993698C8.11232 1.05917 8.09578 1.12327 8.06731 1.18233L1.34983 15.1615C1.29249 15.2808 1.1901 15.3725 1.0652 15.4163C0.940294 15.4601 0.803088 15.4525 0.683772 15.3952C0.564455 15.3379 0.472811 15.2355 0.428987 15.1106C0.385158 14.9856 0.392742 14.8484 0.450077 14.7291L7.16756 0.749971C7.19588 0.690838 7.23559 0.637874 7.28442 0.594099C7.33324 0.550344 7.39023 0.516636 7.4521 0.494931C7.51396 0.473225 7.57951 0.463938 7.64498 0.467592C7.71045 0.471261 7.77455 0.487807 7.83361 0.516277Z" fill="#FFFFFF"/>
<path fill-rule="evenodd" clip-rule="evenodd" d="M0.592032 0.566404C0.533257 0.595469 0.480792 0.635833 0.437631 0.685205C0.39449 0.734568 0.361497 0.791979 0.340566 0.854109C0.319635 0.91624 0.311162 0.981911 0.315639 1.04732C0.320126 1.11274 0.337471 1.17662 0.366677 1.23533L7.25828 15.1295C7.3171 15.2481 7.42062 15.3384 7.54607 15.3807C7.67151 15.4229 7.80861 15.4136 7.92721 15.3548C8.0458 15.296 8.13615 15.1925 8.17841 15.067C8.22068 14.9416 8.21138 14.8045 8.15256 14.6859L1.26095 0.791759C1.23189 0.732984 1.19153 0.680519 1.14215 0.637358C1.09279 0.594217 1.03538 0.561224 0.97325 0.540293C0.911119 0.519362 0.845448 0.510889 0.780043 0.515366C0.714618 0.519853 0.650736 0.537198 0.592032 0.566404Z" fill="#FFFFFF"/>
</svg>
